<svg id="visual" viewBox="0 0 1920 1080" width="1920" height="1080" xmlns="http://www.w3.org/2000/svg" xmlns:xlink="http://www.w3.org/1999/xlink" version="1.1"><g transform="translate(75.46693027191998 203.24872479118028)"><path d="M554.8 -985.9C763.2 -840.5 1006.9 -781.3 1071.6 -631.3C1136.4 -481.3 1022.2 -240.7 1026.9 2.7C1031.7 246.2 1155.4 492.3 1102.3 662.5C1049.2 832.7 819.4 926.9 606.2 954.3C393 981.7 196.5 942.3 25.1 898.8C-146.3 855.3 -292.5 807.6 -530.1 794.3C-767.7 781 -1096.6 802 -1174.8 675.3C-1253 548.7 -1080.5 274.3 -1096.2 -9.1C-1112 -292.5 -1315.9 -585 -1255.2 -742C-1194.6 -899.1 -869.3 -920.7 -616 -1040.1C-362.7 -1159.5 -181.3 -1376.7 -4.1 -1369.7C173.2 -1362.6 346.3 -1131.2 554.8 -985.9" fill="#469BFF"></path></g></svg>