<?xml version="1.0" encoding="utf-8"?>
<svg id="visual" viewBox="0 0 1920 1080" width="1920" height="1080" version="1.1" xmlns="http://www.w3.org/2000/svg">
  <path d="M607 0L577.8 90C548.7 180 490.3 360 497.7 540C505 720 578 900 614.5 990L651 1080L0 1080L0 990C0 900 0 720 0 540C0 360 0 180 0 90L0 0Z" fill="#0066FF" stroke-linecap="round" stroke-linejoin="miter" style="opacity: 0.55;"/>
  <path d="M 0.441 934.333 L 80.441 943.533 C 160.441 952.633 320.441 971.033 480.441 974.133 C 640.441 977.333 800.441 965.333 960.441 967.333 C 1120.441 969.333 1280.441 985.333 1440.441 983.633 C 1600.441 982.033 1760.441 962.633 1840.441 953.033 L 1920.441 943.333 L 1920.441 1080.333 L 1840.441 1080.333 C 1760.441 1080.333 1600.441 1080.333 1440.441 1080.333 C 1280.441 1080.333 1120.441 1080.333 960.441 1080.333 C 800.441 1080.333 640.441 1080.333 480.441 1080.333 C 320.441 1080.333 160.441 1080.333 80.441 1080.333 L 0.441 1080.333 L 0.441 934.333 Z" fill="#0066FF" stroke-linecap="round" stroke-linejoin="miter"/>
</svg>