<svg id="visual" viewBox="0 0 1920 200" width="1920" height="200" xmlns="http://www.w3.org/2000/svg" xmlns:xlink="http://www.w3.org/1999/xlink" version="1.1"><path d="M0 105L45.7 102.5C91.3 100 182.7 95 274.2 95.5C365.7 96 457.3 102 548.8 103.8C640.3 105.7 731.7 103.3 823 100.3C914.3 97.3 1005.7 93.7 1097 94.5C1188.3 95.3 1279.7 100.7 1371.2 103.5C1462.7 106.3 1554.3 106.7 1645.8 104.5C1737.3 102.3 1828.7 97.7 1874.3 95.3L1920 93L1920 0L1874.3 0C1828.7 0 1737.3 0 1645.8 0C1554.3 0 1462.7 0 1371.2 0C1279.7 0 1188.3 0 1097 0C1005.7 0 914.3 0 823 0C731.7 0 640.3 0 548.8 0C457.3 0 365.7 0 274.2 0C182.7 0 91.3 0 45.7 0L0 0Z" fill="#fff" stroke-linecap="round" stroke-linejoin="miter"></path></svg>