<?xml version="1.0" encoding="utf-8"?>
<svg id="visual" viewBox="0 0 1920 1080" width="1920" height="1080" version="1.1" xmlns="http://www.w3.org/2000/svg">
  <g transform="translate(75.46693027191998 203.24872479118028)" style="opacity: 0.55;">
    <path d="M554.8 -985.9C763.2 -840.5 1006.9 -781.3 1071.6 -631.3C1136.4 -481.3 1022.2 -240.7 1026.9 2.7C1031.7 246.2 1155.4 492.3 1102.3 662.5C1049.2 832.7 819.4 926.9 606.2 954.3C393 981.7 196.5 942.3 25.1 898.8C-146.3 855.3 -292.5 807.6 -530.1 794.3C-767.7 781 -1096.6 802 -1174.8 675.3C-1253 548.7 -1080.5 274.3 -1096.2 -9.1C-1112 -292.5 -1315.9 -585 -1255.2 -742C-1194.6 -899.1 -869.3 -920.7 -616 -1040.1C-362.7 -1159.5 -181.3 -1376.7 -4.1 -1369.7C173.2 -1362.6 346.3 -1131.2 554.8 -985.9" fill="#469BFF"/>
  </g>
  <g id="Illustration" transform="matrix(0.26224, 0, 0, 0.26224, 105.450691, 51.112026)" style="">
    <g>
      <path style="fill:#F4F7FA;" d="M3166.414,1237.759c75.573-688.326-591.753-927.462-1064.836-751.222 c-476.922,177.67-587.488-116.85-1258.113-32.701c-679.044,85.205-334.283,1151.133-334.283,1151.133 s108.046,926.891,236.053,1354.134c127.314,424.933,1345.976,271.194,1642.434,258.514 c294.752-12.609,550.875,11.727,807.323-454.845C3450.969,2297.049,3091.09,1923.803,3166.414,1237.759z"/>
      <g>
        <g>
          <defs>
            <path id="XMLID_1_" d="M2321.768,2339.564c85.595-10.223,106.663-113.612,109.807-233.062 c3.144-119.449,190.195-158.128,252.009-187.5c88.25-41.928,120.068-65.573,138.962-271.578 c-6.375-288.946,103.108-477.776,232.456-464.561c131.06,13.391,180.159,146.5,146.624,269.858 c-16.682,61.371,38.014,81.817,56.336,139.854c7.424,23.513,6.072,42.463,4.271,60.86 c-10.508,107.301-159.641,119.06-194.351,224.69c-30.74,93.545,67.94,139.942,35.232,224.205 c-29.63,76.332-118.286,58.051-289.128,187.837c-16.138,12.261-29.892,39.383-77.933,65.038 c-56.542,30.195-153.195,69.786-197.567,126.385c-58.6-4.006-117.6-8.937-175.409-5.049 c-56.004-8.868-111.546-20.651-166.554-34.552C2218.54,2396.599,2255.949,2347.426,2321.768,2339.564z"/>
          </defs>
          <linearGradient id="XMLID_00000077325596376299135000000007624136853442327173_" gradientUnits="userSpaceOnUse" x1="3693.6768" y1="1035.3959" x2="4309.0898" y2="2652.4458" gradientTransform="matrix(-0.9654 0.2607 0.2607 0.9654 6115.5151 -814.6199)">
            <stop offset="0" style="stop-color:#AA80F9"/>
            <stop offset="0.9964" style="stop-color:#6165D7"/>
          </linearGradient>
          <path d="M2321.768,2339.564c85.595-10.223,106.663-113.612,109.807-233.062 c3.144-119.449,190.195-158.128,252.009-187.5c88.25-41.928,120.068-65.573,138.962-271.578 c-6.375-288.946,103.108-477.776,232.456-464.561c131.06,13.391,180.159,146.5,146.624,269.858 c-16.682,61.371,38.014,81.817,56.336,139.854c7.424,23.513,6.072,42.463,4.271,60.86 c-10.508,107.301-159.641,119.06-194.351,224.69c-30.74,93.545,67.94,139.942,35.232,224.205 c-29.63,76.332-118.286,58.051-289.128,187.837c-16.138,12.261-29.892,39.383-77.933,65.038 c-56.542,30.195-153.195,69.786-197.567,126.385c-58.6-4.006-117.6-8.937-175.409-5.049 c-56.004-8.868-111.546-20.651-166.554-34.552C2218.54,2396.599,2255.949,2347.426,2321.768,2339.564z" style="overflow: visible; fill: url('#XMLID_00000077325596376299135000000007624136853442327173_');"/>
          <clipPath id="XMLID_00000164472586797918319570000010766597304602174859_">
            <path d="M2321.768,2339.564c85.595-10.223,106.663-113.612,109.807-233.062 c3.144-119.449,190.195-158.128,252.009-187.5c88.25-41.928,120.068-65.573,138.962-271.578 c-6.375-288.946,103.108-477.776,232.456-464.561c131.06,13.391,180.159,146.5,146.624,269.858 c-16.682,61.371,38.014,81.817,56.336,139.854c7.424,23.513,6.072,42.463,4.271,60.86 c-10.508,107.301-159.641,119.06-194.351,224.69c-30.74,93.545,67.94,139.942,35.232,224.205 c-29.63,76.332-118.286,58.051-289.128,187.837c-16.138,12.261-29.892,39.383-77.933,65.038 c-56.542,30.195-153.195,69.786-197.567,126.385c-58.6-4.006-117.6-8.937-175.409-5.049 c-56.004-8.868-111.546-20.651-166.554-34.552C2218.54,2396.599,2255.949,2347.426,2321.768,2339.564z" style="overflow: visible;"/>
          </clipPath>
          <g style="clip-path:url(#XMLID_00000164472586797918319570000010766597304602174859_);">
            <g style="opacity:0.5;">
              <path style="fill:#FCFDFE;" d="M2252.708,2623.074l3.258,3.73c20.763-17.792,41.464-36.011,61.526-54.148 c148.535-134.306,278.076-278.647,385.028-429.02c90.621-127.416,166.33-260.934,225.022-396.844 c47.2-109.298,83.701-220.732,108.488-331.204c17.423-77.661,28.925-154.049,34.177-227.04 c0.917-12.721,1.139-25.835,1.354-38.519c0.286-16.898,0.581-34.373,2.527-51.046l-4.739-0.909 c-1.973,16.902-2.271,34.494-2.56,51.507c-0.213,12.621-0.435,25.67-1.343,38.261 c-5.236,72.763-16.702,148.923-34.077,226.364c-24.724,110.199-61.141,221.367-108.231,330.414 c-58.571,135.63-134.129,268.881-224.576,396.052c-106.77,150.12-236.106,294.23-384.413,428.327 C2294.117,2587.113,2273.446,2605.306,2252.708,2623.074z"/>
              <path style="fill:#FCFDFE;" d="M2844.673,1906.459l4.175,2.626c98.955-171.446,420.978-285.847,424.219-286.981l-1.875-4.527 C3267.937,1618.718,2944.421,1733.641,2844.673,1906.459z"/>
              <path style="fill:#FCFDFE;" d="M2523.9,2358.442l3.879,3.071c81.502-107.56,18.433-373.713,17.787-376.389l-4.634,0.782 C2541.573,1988.561,2604.13,2252.564,2523.9,2358.442z"/>
              <path style="fill:#FCFDFE;" d="M2472.067,2415.049l3.329,3.668c65.518-58.696,188.955-101.155,347.569-119.552 c7.976-0.926,7.976-0.926,8.634-1.497l-3.286-3.707l1.643,1.854l-0.873-2.275c-0.519,0.123-3.53,0.474-7.022,0.876 C2662.543,2312.919,2538.247,2355.759,2472.067,2415.049z"/>
              <path style="fill:#FCFDFE;" d="M2290.1,2590.031l4.165,2.639c49.037-84.119-6.921-226.788-7.49-228.218l-4.413,1.471 C2282.924,2367.333,2338.013,2507.838,2290.1,2590.031z"/>
              <path style="fill:#FCFDFE;" d="M3015.685,1478.945l4.297,2.396c49.463-98.811,125.239-189.336,150.14-219.083 c6.028-7.201,8.141-9.743,8.713-10.769l-4.208-2.567c-0.447,0.776-3.893,4.893-8.256,10.104 C3141.391,1288.869,3065.375,1379.683,3015.685,1478.945z"/>
              <path style="fill:#FCFDFE;" d="M2959.966,1653.386l4.717,1.073c15.959-104.376-111.541-285.631-116.977-293.296l-3.817,2.565 C2845.207,1365.588,2975.628,1550.96,2959.966,1653.386z"/>
            </g>
          </g>
        </g>
        <g>
          <linearGradient id="SVGID_1_" gradientUnits="userSpaceOnUse" x1="2699.8328" y1="1386.1906" x2="3538.3647" y2="1386.1906" gradientTransform="matrix(-1 0 0 1 5764.5703 0)">
            <stop offset="0" style="stop-color:#FF9085"/>
            <stop offset="1" style="stop-color:#FB6FBB"/>
          </linearGradient>
          <path style="fill:url(#SVGID_1_);" d="M2228.125,2273.154c12.911,8.908,52.803-63.164,155.094-109.581 c25.556-11.596,160.556-84.513,249.192-10.675c17.206,14.333,34.414,28.665,51.619,42.998 c47.876-24.619,88.438-56.692,50.68-116.327c-58.638-92.609,58.668-223.823,122.477-250.286 c78.975-32.755,261.062-112.814,172.633-257.263c-73.616-120.254-145.402-184.424-40.687-312.191 c104.718-127.769,103.427-267.076-21.253-365.432c-131.207-103.504-91.039-348.884-240.302-388.307 c-260.086-68.688-345.811,342.617-201.542,613.034c144.267,270.416-46.176,232.274-143.481,326.45 c-8.537,9.254-21.059,24.26-32.477,44.776c-70.293,126.314,23.188,242.578,24.64,398.814 C2376.699,2102.237,2206.373,2258.148,2228.125,2273.154z"/>
          <g>
            <defs>
              <path id="SVGID_00000154416893817029507430000008454088303071637888_" d="M2375.513,1976.694l272.47,240.103 c48.48-22.03,128.903-70.614,86.726-137.226c-58.637-92.611,58.668-223.824,122.477-250.287 c78.975-32.754,261.062-112.814,172.633-257.264c-73.616-120.254-145.402-184.421-40.685-312.191 c104.716-127.769,103.424-267.076-21.256-365.431c-131.206-103.503-91.037-348.884-240.302-388.306 c-260.085-68.69-345.809,342.615-201.542,613.032s-46.174,232.275-143.48,326.451 c-132.843,128.571,90.419,275.418,93.275,375.164C2478.069,1898.934,2417.436,1949.837,2375.513,1976.694z"/>
            </defs>
            <clipPath id="SVGID_00000004527909010815760830000018357412431559564443_">
              <path d="M2375.513,1976.694l272.47,240.103 c48.48-22.03,128.903-70.614,86.726-137.226c-58.637-92.611,58.668-223.824,122.477-250.287 c78.975-32.754,261.062-112.814,172.633-257.264c-73.616-120.254-145.402-184.421-40.685-312.191 c104.716-127.769,103.424-267.076-21.256-365.431c-131.206-103.503-91.037-348.884-240.302-388.306 c-260.085-68.69-345.809,342.615-201.542,613.032s-46.174,232.275-143.48,326.451 c-132.843,128.571,90.419,275.418,93.275,375.164C2478.069,1898.934,2417.436,1949.837,2375.513,1976.694z" style="overflow: visible;"/>
            </clipPath>
            <g style="opacity:0.5;clip-path:url(#SVGID_00000004527909010815760830000018357412431559564443_);">
              <path style="fill:#FCFDFE;" d="M2540.041,2049.726l6.757,4.042c274.681-468.964,308.257-1078.978,87.623-1591.986l-7.1,2.617 C2847.025,975.246,2813.581,1582.709,2540.041,2049.726z"/>
              <path style="fill:#FCFDFE;" d="M2666.727,1780.25l5.881,5.229c144.162-157.751,401.22-152.145,403.801-152.069l-0.193-7.578 C3073.603,1625.754,2813.162,1620.014,2666.727,1780.25z"/>
              <path style="fill:#FCFDFE;" d="M2588.093,1961.975l7.559,1.993c47.271-213.05-245.849-509.624-248.816-512.594l-5.378,5.151 C2344.392,1459.463,2634.465,1752.976,2588.093,1961.975z"/>
              <path style="fill:#FCFDFE;" d="M2770.093,1252.891l7.394,2.615c52.275-164.463,297.34-271.242,299.809-272.302l-3.413-6.973 C3071.382,977.302,2823.332,1085.39,2770.093,1252.891z"/>
              <path style="fill:#FCFDFE;" d="M2751.753,900.909l7.357-1.939c-62.773-192.954-305.362-332.745-307.81-334.134l-3.602,6.506 C2450.117,572.712,2689.96,710.961,2751.753,900.909z"/>
            </g>
          </g>
        </g>
      </g>
      <g>
        <linearGradient id="SVGID_00000105419521326824966490000002027622187153997727_" gradientUnits="userSpaceOnUse" x1="541.8016" y1="1538.5149" x2="2624.8997" y2="1538.5149">
          <stop offset="0" style="stop-color:#444B8C"/>
          <stop offset="0.9964" style="stop-color:#26264F"/>
        </linearGradient>
        <path style="fill:url(#SVGID_00000105419521326824966490000002027622187153997727_);" d="M667.743,2406.148 c-70.682-1.726-125.942-58.998-125.942-130.39V798.43c0-72.979,58.732-130.176,131.039-127.495l1837.937,68.147 c0.693,0.026,1.184,0.047,1.873,0.085c62.064,3.5,112.248,60.807,112.248,127.766v1344.298 c0,66.597-49.862,122.685-111.457,125.027l-1837.676,69.83C673.034,2406.19,670.465,2406.215,667.743,2406.148z"/>
        <path style="fill:#C281E8;" d="M693.779,2406.784c-70.615-1.725-125.823-58.969-125.823-130.328V799.825 c0-72.945,58.676-130.117,130.916-127.438l1836.239,68.068c0.692,0.026,1.182,0.046,1.871,0.085 c62.008,3.497,112.147,60.777,112.147,127.705v1343.689c0,66.567-49.817,122.63-111.356,124.972l-1835.977,69.82 C699.065,2406.826,696.498,2406.851,693.779,2406.784z"/>
        <path style="fill:#F4F7FA;" d="M2535.674,2302.251l-1836.315,68.627c-52.121,1.948-94.55-39.881-94.55-93.437V801.791 c0-53.555,42.43-95.425,94.55-93.526l1836.315,66.885c43.776,1.594,79.128,42.44,79.128,91.237v1344.551 C2614.802,2259.736,2579.45,2300.615,2535.674,2302.251z"/>
        <path style="fill:#C281E8;" d="M1148.954,2037.352l-291.367,6.709c-3.487,0.08-6.314-2.774-6.314-6.376v-71.614 c0-3.602,2.827-6.576,6.314-6.643l291.367-5.607c3.395-0.065,6.147,2.762,6.147,6.315v70.642 C1155.101,2034.33,1152.35,2037.274,1148.954,2037.352z"/>
        <path style="fill:#D8DEE8;" d="M1987.949,2170.829L857.588,2204.99c-3.487,0.105-6.314-2.729-6.314-6.331v-71.614 c0-3.602,2.827-6.596,6.314-6.688l1130.362-29.885c3.142-0.083,5.689,2.62,5.689,6.038v67.958 C1993.638,2167.886,1991.092,2170.734,1987.949,2170.829z"/>
        <g>
          <path style="fill:#C281E8;" d="M839.715,1085.398c-15.988,9.718-31.397,31.35-27.895,55.425 c3.554,24.427,24.947,40.165,41.816,45.422c23.719,7.391,31.533-8.117,57.051-5.495c38.621,3.967,68.67,44.458,81.217,74.246 c12.331,29.276,2.715,36.253,10.683,69.904c13.994,59.106,57.377,95.596,98.707,130.359 c34.418,28.949,86.902,64.034,96.336,53.762c3.378-3.678,0.336-12.17-1.499-17.292c-7.281-20.328-23.903-25.076-46.564-44.186 c-16.117-13.591-36.462-30.747-33.165-44.295c3.247-13.345,29.016-21.46,48.207-15.468c19.221,6.001,29.545,25.435,34.52,34.798 c4.252,8.004,3.547,18.359,7.49,18.89c2.721,0.367,5.746-3.823,7.111-7.433c3.512-9.291-2.628-18.322-4.865-25.55 c-5.151-16.645,7.055-34.478,19.197-52.216c20.308-29.669,32.2-29.785,63.584-64.193c20.989-23.011,31.492-34.844,32.642-51.741 c1.971-28.973-21.735-50.902-25.71-54.578c-19.17-17.733-51.689-30.14-65.535-17.765c-12.423,11.104,0.655,32.792-13.952,48.973 c-10.214,11.315-28.051,13.404-41.962,8.845c-19.649-6.439-30.945-25.969-32.078-43.507c-0.224-3.459-1.257-19.445,9.031-30.307 c2.933-3.096,10.067-9.24,34.052-9.902c33.696-0.93,40.72,10.637,60.831,6.295c16.764-3.619,36.979-17.078,36.734-30.675 c-0.286-15.923-28.385-18.041-60.628-54.511c-12.55-14.196-22.759-26.073-21.948-41.322 c1.142-21.465,23.491-37.94,27.926-41.209c17.391-12.819,32.822-23.211,32.822-23.211c4.344-2.925,10.652-7.113,9.927-11.229 c-0.477-2.709-3.868-4.635-9.927-6.532c-19.141-5.991-33.818-3-33.818-3c-22.781,4.643-30.038,16.005-57.932,30.962 c-11.269,6.043-30.282,16.238-56.224,21.708c-29.608,6.243-39.789,0.341-54.488,11.323 c-14.183,10.596-9.71,19.817-24.303,36.364c-15.287,17.333-33.971,22.845-63.031,31.417 c-11.136,3.285-33.639,9.158-64.415,11.406C865.788,1083.09,856.508,1075.191,839.715,1085.398z"/>
          <path style="fill:#C281E8;" d="M1322.313,954.816c-30.912,7.77-57.804,14.528-63.406,33.867 c-2.913,10.055-0.205,23.992,7.946,31.533c16.205,14.994,40.658-7.566,58.423,5.52c9.499,6.998,5.903,15.952,16.776,65.969 c7.253,33.364,13.209,49.406,24.624,63.922c6.47,8.227,15.544,19.765,24.569,18.077c13.364-2.5,8.303-30.6,29.41-50.348 c7.406-6.929,8.757-4.145,43.966-20.921c20.536-9.785,30.836-14.757,33.102-18.99c11.581-21.639-19.178-48.847-6.807-74.582 c2.333-4.852,2.654-2.273,18.466-22.286c18.167-22.994,17.941-26.657,17.465-28.466c-2.017-7.677-15.525-8.595-50.531-13.745 c-58.155-8.555-62.871-12.19-80.164-8.385c-11.479,2.525-14.536,5.255-39.319,11.416 C1337.476,952.21,1335.313,951.548,1322.313,954.816z"/>
          <path style="fill:#C281E8;" d="M1243.993,1509.062c-17.125,13.055-20.53,35.78-21.91,44.989 c-3.415,22.785,2.983,37.704,14.944,75.295c14.528,45.66,21.785,68.468,22.874,81.399c1.691,20.071-1.833,23.587-15.907,102.608 c-10.47,58.783-11.589,74.061-1.99,84.733c14.116,15.695,44.468,13.717,45.68,9.669c0.59-1.971-5.96-3.626-10.906-10.253 c-11.015-14.76-3.083-39.426-0.992-45.927c8.248-25.647,24.006-36.698,49.491-62.194c30.066-30.081,49.642-49.665,64.006-78.668 c7.138-14.413,22.352-46.166,17.659-87.333c-0.946-8.295-4.903-36.3-24.533-64.317c-25.492-36.383-59.905-47.807-69.977-50.982 C1292.822,1501.902,1264.92,1493.108,1243.993,1509.062z"/>
          <path style="fill:#C281E8;" d="M1535.569,1365.903c-11.076,22.07-23.327,46.481-28.129,69.009 c-4.299,20.166-8.405,65.927,13.589,83.691c19.893,16.068,42.83-5.596,70.581,12.383c14.152,9.168,20.387,22.712,27.912,39.054 c16.172,35.123,8.459,54.521,15.369,99.598c3.248,21.186,13.564,88.483,39.283,93.038c21.441,3.798,44.77-37.601,48.665-44.513 c10.347-18.36,14.332-37.426,21.875-74.788c10.17-50.37,6.388-57.418,17.089-71.564c13.769-18.201,30.44-20.282,34.096-37.787 c2.686-12.862-3.72-24.463-7.568-31.612c-14.215-26.416-34.04-23.585-47.418-49.117c-7.693-14.68-9.774-32.096-6.655-33.761 c2.788-1.489,10.511,9.195,14.256,14.376c11.503,15.914,10.096,21.649,17.083,29.681c14.124,16.235,37.965,13.593,39.754,13.368 c10.931-1.38,30.607-7.893,33.016-21.285c1.854-10.312-7.122-21.38-17.911-34.682c-8.707-10.736-15.221-15.361-14.161-17.393 c1.074-2.059,8.815,0.671,29.245,8.312c22.17,8.291,33.238,12.431,34.802,13.397c7.455,4.607,13.805,10.817,34.688,47.837 c21.151,37.495,28.845,56.318,33.643,54.77c2.388-0.771,1.974-5.913,3.731-23.286c2.628-25.986,4.068-39.169,10.255-48.563 c5.218-7.923,16.379-18.642,27.918-17.086c6.922,0.933,15.232,12.462,31.552,35.454c16.077,22.65,21.497,30.346,32.382,36.357 c5.712,3.154,15.942,8.803,23.992,4.046c8.935-5.28,12-21.501,8.292-33.195c-4.487-14.15-16.952-15.552-16.591-24.201 c0.516-12.334,26.307-20.342,28.557-21.019c16.628-5.003,20.882,0.756,29.397-4.892c12.64-8.384,17.846-30.754,14.668-48.095 c-3.272-17.86-14.359-24.508-10.999-32.201c2.826-6.47,11.7-4.122,29.305-8.776c13.067-3.454,32.354-8.552,42.895-24.632 c6.274-9.572,7.382-19.879,9.104-35.911c0.287-2.667,1.532-14.997,0-32.002c-2.121-23.547-6.791-25.248-4.551-32.069 c4.914-14.964,28.585-10.461,73.486-23.832c25.668-7.644,44.194-16.941,46.006-13.189c2.273,4.707-27.722,17.649-29.745,42.333 c-1.533,18.703,13.52,37.818,19.84,36.112c5.221-1.409,1.451-16.211,10.806-37.654c3.444-7.894,8.669-19.87,19.782-27.53 c13.331-9.189,21.191-2.551,33.185-12.364c9.593-7.849,7.175-14.239,15.212-22.547c18.207-18.822,48.871-4.905,50.843-11.954 c1.822-6.514-21.821-27.505-52.631-32.69c-27.415-4.614-31.638,8.125-62.79,7.701c-17.703-0.24-39.156-8.33-82.195-24.56 c-24.328-9.174-37.01-15.366-59.108-17.232c-15.391-1.299-15.853,1.143-31.965-0.681c-18.286-2.07-40.953-4.636-58.703-21.359 c-13.929-13.123-9.675-20.679-21.176-28.651c-18.573-12.874-44.014-3.122-65.638,5.519 c-22.982,9.183-39.304,20.602-66.98,39.964c-32.206,22.531-42.999,33.828-60.832,31.203 c-13.328-1.961-16.056-9.554-31.017-9.767c-12.109-0.172-15.907,4.717-40.552,15.485 c-23.846,10.419-36.001,15.593-46.398,13.395c-16.11-3.406-16.731-15.425-34.217-23.146 c-18.656-8.238-36.462-2.743-58.228,3.974c-26.895,8.3-53.374,16.47-66.246,40.881c-13.638,25.865-0.991,49.053-16.384,60.455 c-12.776,9.463-25.863-3.242-37.681,6.661c-14.205,11.902-9.977,42.533-7.746,58.695c4.395,31.837,15.315,39.771,11.616,62.007 C1547.484,1344.919,1544.581,1347.946,1535.569,1365.903z"/>
          <path style="fill:#C281E8;" d="M1795.898,1632.91c-6.662-0.71-17.813,27.992-15.14,55.161 c0.159,1.616,2.356,22.689,8.519,23.391c5.726,0.652,11.686-16.647,12.294-18.449c1-2.963,4.004-12.633,2.835-28.554 C1804.078,1660.006,1802.138,1633.575,1795.898,1632.91z"/>
          <path style="fill:#C281E8;" d="M2034.345,1566.227c-0.488,1.254,1.394,3.389,6.631,7.912 c13.833,11.946,20.742,17.914,32.135,22.206c9.837,3.707,34.296,10.426,39.542,0.878c3.363-6.121-1.468-18.378-9.183-24.086 c-8.222-6.084-14.406-0.798-34.045-1.941C2049.064,1570.012,2035.537,1563.161,2034.345,1566.227z"/>
          <path style="fill:#C281E8;" d="M2103.471,1513.856c-4.057,0.698-3.022,9.394-11.03,28.141 c-3.737,8.749-5.764,11.075-4.599,14.08c2.57,6.627,18.043,9.805,25.729,1.975c7.175-7.308,3.903-20.48,2.753-25.109 C2114.149,1524.188,2108.222,1513.038,2103.471,1513.856z"/>
          <path style="fill:#C281E8;" d="M2185.828,1586.979c3.053,4.842,8.237,10.832,20.944,16.94 c4.432,2.13,37.157,17.862,45.387,5.824c3.352-4.902,1.709-13.038-0.906-17.956c-4.047-7.613-11.439-9.431-23.578-12.915 c-36.174-10.381-44.366-15.415-47.317-10.9C2177.042,1573.046,2184.16,1584.334,2185.828,1586.979z"/>
          <path style="fill:#C281E8;" d="M2124.579,1478.738c-4.328,1.449-4.052,23.009,3.667,40.154 c4.014,8.916,11.322,19.485,14.654,18.059c3.603-1.542,1.772-16.772-0.915-27.08 C2137.99,1494.552,2128.77,1477.335,2124.579,1478.738z"/>
          <path style="fill:#C281E8;" d="M2159.361,1377.605c0.069-5.04,11.518-3.742,26.467-13.822 c10.384-7.001,25.596-21.609,33.672-41.706c1.637-4.073,3.322-9.221,4.542-8.947c1.84,0.414,2.067,13.044,0,23.978 c-3.819,20.202-16.16,38.242-31.835,46.736c-6.15,3.332-10.743,4.074-14.585,3.904 C2169.078,1387.373,2159.297,1382.276,2159.361,1377.605z"/>
          <path style="fill:#C281E8;" d="M2128.245,1671.441c-20.045,19.036-30.994,15.645-33.966,26.366 c-3.367,12.148,10.392,17.552,12.865,42.091c1.537,15.253-2.698,23.884,0.918,26.109c5.481,3.373,14.529-16.88,35.751-24.47 c1.646-0.589,23.871-8.165,42.013,3.58c10.535,6.82,9.209,13.37,26.401,29.718c10.999,10.459,16.713,15.737,23.613,14.701 c11.376-1.707,17.802-19.354,21.75-30.194c3.268-8.973,10.755-29.534,5.431-53.909c-2.306-10.556-4.005-8.056-35.348-56.639 c-8.668-13.435-12.148-19.222-19.993-22.882c-16.018-7.475-33.581,1.679-36.448,3.173c-6.291,3.279-11.806,8.904-22.844,20.162 C2135.342,1662.554,2136.154,1663.931,2128.245,1671.441z"/>
        </g>
        <g>
          <g>
            <linearGradient id="SVGID_00000123416512260926074080000010825646270487050374_" gradientUnits="userSpaceOnUse" x1="1011.1618" y1="1136.5238" x2="1161.9796" y2="1136.5238">
              <stop offset="0" style="stop-color:#311944"/>
              <stop offset="1" style="stop-color:#6B3976"/>
            </linearGradient>
            <path style="fill:url(#SVGID_00000123416512260926074080000010825646270487050374_);" d="M1094.344,1244.469 c-18.756-13.343-51.156-41.004-68.637-87.438c-7.107-18.881-27.935-74.202-1.589-105.888 c15.627-18.795,40.903-20.87,53.898-21.939c11.002-0.904,44.907-3.689,66.219,17.946 c33.966,34.481,9.614,104.444,4.715,118.522C1134.793,1206.346,1109.272,1231.808,1094.344,1244.469z"/>
            <linearGradient id="SVGID_00000052090530116611890140000009954269601382728101_" gradientUnits="userSpaceOnUse" x1="1044.7565" y1="1107.7147" x2="1125.3549" y2="1107.7147">
              <stop offset="0" style="stop-color:#311944"/>
              <stop offset="1" style="stop-color:#6B3976"/>
            </linearGradient>
            <path style="fill:url(#SVGID_00000052090530116611890140000009954269601382728101_);" d="M1125.355,1108.481 c0,23.188-17.992,41.678-40.226,41.298c-22.279-0.382-40.373-19.558-40.373-42.831c0-23.273,18.094-41.761,40.373-41.295 C1107.363,1066.119,1125.355,1085.293,1125.355,1108.481z"/>
          </g>
          <g>
            <linearGradient id="SVGID_00000028304615540214826090000000133775878039276973_" gradientUnits="userSpaceOnUse" x1="1258.6792" y1="1610.4908" x2="1406.1656" y2="1610.4908">
              <stop offset="0" style="stop-color:#311944"/>
              <stop offset="1" style="stop-color:#6B3976"/>
            </linearGradient>
            <path style="fill:url(#SVGID_00000028304615540214826090000000133775878039276973_);" d="M1340.021,1717.219 c-18.341-12.798-50.025-39.467-67.119-85.014c-6.95-18.52-27.316-72.783-1.554-104.675 c15.281-18.918,39.998-21.506,52.705-22.839c10.759-1.128,43.916-4.602,64.758,16.341 c33.218,33.378,9.403,103.084,4.611,117.11C1379.578,1678.663,1354.62,1704.383,1340.021,1717.219z"/>
            <linearGradient id="SVGID_00000101798677678818856870000005020643528752338593_" gradientUnits="userSpaceOnUse" x1="1291.5298" y1="1582.1797" x2="1370.3477" y2="1582.1797">
              <stop offset="0" style="stop-color:#311944"/>
              <stop offset="1" style="stop-color:#6B3976"/>
            </linearGradient>
            <path style="fill:url(#SVGID_00000101798677678818856870000005020643528752338593_);" d="M1370.348,1582.084 c0,22.931-17.595,41.597-39.338,41.691c-21.786,0.094-39.48-18.485-39.48-41.5s17.693-41.68,39.48-41.692 C1352.753,1540.572,1370.348,1559.152,1370.348,1582.084z"/>
          </g>
          <g>
            <linearGradient id="SVGID_00000136400735948169313640000000149333868051750589_" gradientUnits="userSpaceOnUse" x1="2071.6438" y1="1592.8241" x2="2208.4482" y2="1592.8241">
              <stop offset="0" style="stop-color:#311944"/>
              <stop offset="1" style="stop-color:#6B3976"/>
            </linearGradient>
            <path style="fill:url(#SVGID_00000136400735948169313640000000149333868051750589_);" d="M2147.086,1695.616 c-17.013-12.343-46.399-38.055-62.253-81.933c-6.445-17.84-25.331-70.11-1.441-100.804 c14.171-18.208,37.096-20.686,48.882-21.962c9.98-1.08,40.737-4.406,60.073,15.779c30.82,32.173,8.723,99.297,4.278,112.803 C2183.781,1658.518,2160.628,1683.267,2147.086,1695.616z"/>
            <linearGradient id="SVGID_00000119822155386823884170000013790317788640979376_" gradientUnits="userSpaceOnUse" x1="2102.1089" y1="1565.5505" x2="2175.218" y2="1565.5505">
              <stop offset="0" style="stop-color:#311944"/>
              <stop offset="1" style="stop-color:#6B3976"/>
            </linearGradient>
            <path style="fill:url(#SVGID_00000119822155386823884170000013790317788640979376_);" d="M2175.218,1565.487 c0,22.087-16.322,40.051-36.491,40.124c-20.208,0.074-36.618-17.834-36.618-39.997s16.41-40.128,36.618-40.125 C2158.896,1525.493,2175.218,1543.4,2175.218,1565.487z"/>
          </g>
          <g>
            <linearGradient id="SVGID_00000141447659996550512510000008157159662102663844_" gradientUnits="userSpaceOnUse" x1="1838.2742" y1="1314.0914" x2="1978.1042" y2="1314.0914">
              <stop offset="0" style="stop-color:#311944"/>
              <stop offset="1" style="stop-color:#6B3976"/>
            </linearGradient>
            <path style="fill:url(#SVGID_00000141447659996550512510000008157159662102663844_);" d="M1915.387,1418.021 c-17.389-12.705-47.426-39.092-63.631-83.665c-6.588-18.123-25.893-71.223-1.473-101.935 c14.486-18.219,37.918-20.417,49.965-21.548c10.201-0.958,41.637-3.907,61.4,16.758c31.499,32.939,8.916,100.503,4.372,114.098 C1952.892,1381.005,1929.228,1405.717,1915.387,1418.021z"/>
            <linearGradient id="SVGID_00000049926724640330775290000009421060646088058035_" gradientUnits="userSpaceOnUse" x1="1869.4149" y1="1286.4133" x2="1944.1409" y2="1286.4133">
              <stop offset="0" style="stop-color:#311944"/>
              <stop offset="1" style="stop-color:#6B3976"/>
            </linearGradient>
            <path style="fill:url(#SVGID_00000049926724640330775290000009421060646088058035_);" d="M1944.141,1286.838 c0,22.329-16.682,40.272-37.297,40.077c-20.655-0.196-37.428-18.52-37.428-40.927s16.774-40.35,37.428-40.076 C1927.458,1246.186,1944.141,1264.509,1944.141,1286.838z"/>
          </g>
        </g>
        <g>
          <linearGradient id="SVGID_00000171710777411248564710000012667129872584328832_" gradientUnits="userSpaceOnUse" x1="1017.6776" y1="1136.5238" x2="1168.4952" y2="1136.5238">
            <stop offset="0" style="stop-color:#FF9085"/>
            <stop offset="1" style="stop-color:#FB6FBB"/>
          </linearGradient>
          <path style="fill:url(#SVGID_00000171710777411248564710000012667129872584328832_);" d="M1100.86,1244.469 c-18.756-13.343-51.156-41.004-68.637-87.438c-7.107-18.881-27.935-74.202-1.589-105.888 c15.627-18.795,40.903-20.87,53.898-21.939c11.002-0.904,44.907-3.689,66.219,17.946c33.966,34.481,9.614,104.444,4.715,118.522 C1141.308,1206.346,1115.788,1231.808,1100.86,1244.469z"/>
          <path style="fill:#F4F7FA;" d="M1131.87,1108.481c0,23.188-17.992,41.678-40.226,41.298 c-22.279-0.382-40.372-19.558-40.372-42.831c0-23.273,18.094-41.761,40.372-41.295 C1113.879,1066.119,1131.87,1085.293,1131.87,1108.481z"/>
        </g>
        <g>
          <linearGradient id="SVGID_00000005949687987569935050000006298821407212815521_" gradientUnits="userSpaceOnUse" x1="1265.1949" y1="1610.4908" x2="1412.6813" y2="1610.4908">
            <stop offset="0" style="stop-color:#FF9085"/>
            <stop offset="1" style="stop-color:#FB6FBB"/>
          </linearGradient>
          <path style="fill:url(#SVGID_00000005949687987569935050000006298821407212815521_);" d="M1346.537,1717.219 c-18.341-12.798-50.025-39.467-67.119-85.014c-6.95-18.52-27.316-72.783-1.554-104.675 c15.281-18.918,39.998-21.506,52.705-22.839c10.759-1.128,43.916-4.602,64.758,16.341c33.218,33.378,9.403,103.084,4.611,117.11 C1386.093,1678.663,1361.135,1704.383,1346.537,1717.219z"/>
          <path style="fill:#F4F7FA;" d="M1376.863,1582.084c0,22.931-17.595,41.597-39.338,41.691c-21.787,0.094-39.48-18.485-39.48-41.5 s17.693-41.68,39.48-41.692C1359.269,1540.572,1376.863,1559.152,1376.863,1582.084z"/>
        </g>
        <g>
          <linearGradient id="SVGID_00000033329396626393297130000015213040754854607263_" gradientUnits="userSpaceOnUse" x1="2078.1594" y1="1592.8241" x2="2214.9639" y2="1592.8241">
            <stop offset="0" style="stop-color:#FF9085"/>
            <stop offset="1" style="stop-color:#FB6FBB"/>
          </linearGradient>
          <path style="fill:url(#SVGID_00000033329396626393297130000015213040754854607263_);" d="M2153.601,1695.616 c-17.013-12.343-46.399-38.055-62.253-81.933c-6.445-17.84-25.331-70.11-1.441-100.804 c14.171-18.208,37.096-20.686,48.883-21.962c9.98-1.08,40.737-4.406,60.073,15.779c30.82,32.173,8.723,99.297,4.278,112.803 C2190.296,1658.518,2167.143,1683.267,2153.601,1695.616z"/>
          <path style="fill:#F4F7FA;" d="M2181.734,1565.487c0,22.087-16.322,40.051-36.491,40.124 c-20.208,0.074-36.618-17.834-36.618-39.997s16.41-40.128,36.618-40.125C2165.412,1525.493,2181.734,1543.4,2181.734,1565.487z"/>
        </g>
        <g>
          <linearGradient id="SVGID_00000033368444238773317470000010424614720912544926_" gradientUnits="userSpaceOnUse" x1="1844.7898" y1="1314.0914" x2="1984.6199" y2="1314.0914">
            <stop offset="0" style="stop-color:#FF9085"/>
            <stop offset="1" style="stop-color:#FB6FBB"/>
          </linearGradient>
          <path style="fill:url(#SVGID_00000033368444238773317470000010424614720912544926_);" d="M1921.903,1418.021 c-17.389-12.705-47.426-39.092-63.631-83.665c-6.588-18.123-25.893-71.223-1.474-101.935 c14.486-18.219,37.918-20.417,49.965-21.548c10.201-0.958,41.637-3.907,61.4,16.758c31.499,32.939,8.916,100.503,4.372,114.098 C1959.408,1381.005,1935.744,1405.717,1921.903,1418.021z"/>
          <path style="fill:#F4F7FA;" d="M1950.657,1286.838c0,22.329-16.682,40.272-37.297,40.077 c-20.655-0.196-37.429-18.52-37.429-40.927s16.774-40.35,37.429-40.076C1933.974,1246.186,1950.657,1264.509,1950.657,1286.838z "/>
        </g>
      </g>
      <g>
        <g>
          <g>
            <rect x="1211.197" y="2207.929" transform="matrix(-1 -1.224647e-16 1.224647e-16 -1 3756.0657 5064.5947)" style="fill:#D8DEE8;" width="1333.672" height="648.736"/>
            <rect x="1266.461" y="2246.761" transform="matrix(-1 -1.224647e-16 1.224647e-16 -1 3756.0664 5054.4712)" style="opacity:0.3;fill:#D8DEE8;" width="1223.145" height="560.949"/>
            <g>
              <g>
                <rect x="2354.898" y="2246.761" transform="matrix(-1 -1.224647e-16 1.224647e-16 -1 4766.2896 5054.4712)" style="opacity:0.6;fill:#D8DEE8;" width="56.493" height="560.949"/>
                <rect x="2352.683" y="2246.761" transform="matrix(-1 -1.224647e-16 1.224647e-16 -1 4743.0273 5054.4712)" style="fill:#D8DEE8;" width="37.662" height="560.949"/>
              </g>
              <g>
                <rect x="2210.897" y="2246.761" transform="matrix(-1 -1.224647e-16 1.224647e-16 -1 4478.2871 5054.4712)" style="opacity:0.6;fill:#D8DEE8;" width="56.492" height="560.949"/>
                <rect x="2208.682" y="2246.761" transform="matrix(-1 -1.224647e-16 1.224647e-16 -1 4455.0254 5054.4712)" style="fill:#D8DEE8;" width="37.662" height="560.949"/>
              </g>
              <g>
                <rect x="2066.896" y="2246.761" transform="matrix(-1 -1.224647e-16 1.224647e-16 -1 4190.2847 5054.4712)" style="opacity:0.6;fill:#D8DEE8;" width="56.493" height="560.949"/>
                <rect x="2064.681" y="2246.761" transform="matrix(-1 -1.224647e-16 1.224647e-16 -1 4167.0234 5054.4712)" style="fill:#D8DEE8;" width="37.662" height="560.949"/>
              </g>
              <g>
                <rect x="1922.895" y="2246.761" transform="matrix(-1 -1.224647e-16 1.224647e-16 -1 3902.2827 5054.4712)" style="opacity:0.6;fill:#D8DEE8;" width="56.493" height="560.949"/>
                <rect x="1920.679" y="2246.761" transform="matrix(-1 -1.224647e-16 1.224647e-16 -1 3879.0205 5054.4712)" style="fill:#D8DEE8;" width="37.662" height="560.949"/>
              </g>
              <g>
                <rect x="1778.894" y="2246.761" transform="matrix(-1 -1.224647e-16 1.224647e-16 -1 3614.2803 5054.4712)" style="opacity:0.6;fill:#D8DEE8;" width="56.492" height="560.949"/>
                <rect x="1776.678" y="2246.761" transform="matrix(-1 -1.224647e-16 1.224647e-16 -1 3591.0186 5054.4712)" style="fill:#D8DEE8;" width="37.662" height="560.949"/>
              </g>
              <g>
                <rect x="1634.892" y="2246.761" transform="matrix(-1 -1.224647e-16 1.224647e-16 -1 3326.2778 5054.4712)" style="opacity:0.6;fill:#D8DEE8;" width="56.493" height="560.949"/>
                <rect x="1632.677" y="2246.761" transform="matrix(-1 -1.224647e-16 1.224647e-16 -1 3303.0166 5054.4712)" style="fill:#D8DEE8;" width="37.662" height="560.949"/>
              </g>
              <g>
                <rect x="1490.891" y="2246.761" transform="matrix(-1 -1.224647e-16 1.224647e-16 -1 3038.2759 5054.4712)" style="opacity:0.6;fill:#D8DEE8;" width="56.493" height="560.949"/>
                <rect x="1488.676" y="2246.761" transform="matrix(-1 -1.224647e-16 1.224647e-16 -1 3015.0137 5054.4712)" style="fill:#D8DEE8;" width="37.662" height="560.949"/>
              </g>
              <g>
                <rect x="1346.891" y="2246.761" transform="matrix(-1 -1.224647e-16 1.224647e-16 -1 2750.2734 5054.4712)" style="opacity:0.6;fill:#D8DEE8;" width="56.492" height="560.949"/>
                <rect x="1344.675" y="2246.761" transform="matrix(-1 -1.224647e-16 1.224647e-16 -1 2727.0117 5054.4712)" style="fill:#D8DEE8;" width="37.662" height="560.949"/>
              </g>
            </g>
          </g>
          <g>
            <rect x="2544.869" y="2207.929" transform="matrix(-1 -1.224647e-16 1.224647e-16 -1 5757.0151 5064.5947)" style="fill:#F4F7FA;" width="667.277" height="648.736"/>
            <rect x="2574.537" y="2219.057" transform="matrix(-1.836970e-16 1 -1 -1.836970e-16 5410.8047 -346.2102)" style="fill:#D8DEE8;" width="607.94" height="626.48"/>
            <g>
              <g>
                <g>
                  <rect x="2574.13" y="2240.604" transform="matrix(-1 -1.224647e-16 1.224647e-16 -1 5448.1118 5064.5947)" style="fill:#D8DEE8;" width="299.853" height="583.387"/>
                  <rect x="2883.033" y="2240.604" transform="matrix(-1 -1.224647e-16 1.224647e-16 -1 6065.918 5064.5947)" style="fill:#D8DEE8;" width="299.853" height="583.387"/>
                </g>
                <g>
                  <rect x="2883.033" y="2406.849" transform="matrix(-1 -1.224647e-16 1.224647e-16 -1 6065.918 4864.6924)" style="opacity:0.3;fill:#D8DEE8;" width="299.853" height="50.995"/>
                  <rect x="2883.033" y="2606.75" transform="matrix(-1 -1.224647e-16 1.224647e-16 -1 6065.918 5264.4961)" style="opacity:0.3;fill:#D8DEE8;" width="299.853" height="50.996"/>
                </g>
              </g>
              <g>
                <rect x="2574.13" y="2406.849" transform="matrix(-1 -1.224647e-16 1.224647e-16 -1 5448.1118 4864.6924)" style="opacity:0.3;fill:#D8DEE8;" width="299.853" height="50.995"/>
                <rect x="2574.13" y="2606.75" transform="matrix(-1 -1.224647e-16 1.224647e-16 -1 5448.1118 5264.4961)" style="opacity:0.3;fill:#D8DEE8;" width="299.853" height="50.996"/>
              </g>
            </g>
            <g>
              <g>
                <rect x="3033.303" y="2225.287" transform="matrix(-1 -1.224647e-16 1.224647e-16 -1 6082.3706 5058.4395)" style="fill:#D8DEE8;" width="15.764" height="607.865"/>
                <polygon style="fill:#97A6B7;" points="3049.067,2833.152 3049.067,2225.287 3041.185,2225.287 &#9;&#9;&#9;&#9;&#9;&#9;&#9;"/>
                <rect x="3027.332" y="2211.688" transform="matrix(-1 -1.224647e-16 1.224647e-16 -1 6082.3711 4455.334)" style="fill:#D8DEE8;" width="27.707" height="31.957"/>
                <rect x="3027.332" y="2817.173" transform="matrix(-1 -1.224647e-16 1.224647e-16 -1 6082.3711 5666.3032)" style="fill:#D8DEE8;" width="27.707" height="31.957"/>
              </g>
              <g>
                <rect x="2816.399" y="2225.287" transform="matrix(-1 -1.224647e-16 1.224647e-16 -1 5648.5635 5058.4395)" style="fill:#D8DEE8;" width="15.765" height="607.865"/>
                <polygon style="fill:#97A6B7;" points="2832.164,2833.152 2832.164,2225.287 2824.282,2225.287 &#9;&#9;&#9;&#9;&#9;&#9;&#9;"/>
                <rect x="2810.428" y="2211.688" transform="matrix(-1 -1.224647e-16 1.224647e-16 -1 5648.5635 4455.334)" style="fill:#D8DEE8;" width="27.708" height="31.957"/>
                <rect x="2810.428" y="2817.173" transform="matrix(-1 -1.224647e-16 1.224647e-16 -1 5648.5635 5666.3032)" style="fill:#D8DEE8;" width="27.708" height="31.957"/>
              </g>
              <g>
                <rect x="2707.948" y="2225.287" transform="matrix(-1 -1.224647e-16 1.224647e-16 -1 5431.6592 5058.4395)" style="fill:#D8DEE8;" width="15.765" height="607.865"/>
                <polygon style="fill:#97A6B7;" points="2723.712,2833.152 2723.712,2225.287 2715.83,2225.287 &#9;&#9;&#9;&#9;&#9;&#9;&#9;"/>
                <rect x="2701.976" y="2211.688" transform="matrix(-1 -1.224647e-16 1.224647e-16 -1 5431.6597 4455.334)" style="fill:#D8DEE8;" width="27.708" height="31.957"/>
                <rect x="2701.976" y="2817.173" transform="matrix(-1 -1.224647e-16 1.224647e-16 -1 5431.6597 5666.3032)" style="fill:#D8DEE8;" width="27.708" height="31.957"/>
              </g>
              <g>
                <rect x="2924.851" y="2225.287" transform="matrix(-1 -1.224647e-16 1.224647e-16 -1 5865.4668 5058.4395)" style="fill:#D8DEE8;" width="15.765" height="607.865"/>
                <polygon style="fill:#97A6B7;" points="2940.616,2833.152 2940.616,2225.287 2932.733,2225.287 &#9;&#9;&#9;&#9;&#9;&#9;&#9;"/>
                <rect x="2918.88" y="2211.688" transform="matrix(-1 -1.224647e-16 1.224647e-16 -1 5865.4668 4455.334)" style="fill:#D8DEE8;" width="27.707" height="31.957"/>
                <rect x="2918.88" y="2817.173" transform="matrix(-1 -1.224647e-16 1.224647e-16 -1 5865.4668 5666.3032)" style="fill:#D8DEE8;" width="27.707" height="31.957"/>
              </g>
            </g>
          </g>
        </g>
        <g>
          <g>
            <rect x="503.988" y="2207.929" transform="matrix(-1 -1.224647e-16 1.224647e-16 -1 2341.6484 5064.5947)" style="fill:#D8DEE8;" width="1333.672" height="648.736"/>
            <rect x="559.252" y="2246.761" transform="matrix(-1 -1.224647e-16 1.224647e-16 -1 2341.6492 5054.4712)" style="opacity:0.3;fill:#D8DEE8;" width="1223.145" height="560.949"/>
            <g>
              <g>
                <rect x="1647.69" y="2246.761" transform="matrix(-1 -1.224647e-16 1.224647e-16 -1 3351.8726 5054.4712)" style="opacity:0.6;fill:#D8DEE8;" width="56.493" height="560.949"/>
                <rect x="1645.474" y="2246.761" transform="matrix(-1 -1.224647e-16 1.224647e-16 -1 3328.6101 5054.4712)" style="fill:#D8DEE8;" width="37.662" height="560.949"/>
              </g>
              <g>
                <rect x="1503.689" y="2246.761" transform="matrix(-1 -1.224647e-16 1.224647e-16 -1 3063.8701 5054.4712)" style="opacity:0.6;fill:#D8DEE8;" width="56.492" height="560.949"/>
                <rect x="1501.473" y="2246.761" transform="matrix(-1 -1.224647e-16 1.224647e-16 -1 3040.6084 5054.4712)" style="fill:#D8DEE8;" width="37.662" height="560.949"/>
              </g>
              <g>
                <rect x="1359.687" y="2246.761" transform="matrix(-1 -1.224647e-16 1.224647e-16 -1 2775.8674 5054.4712)" style="opacity:0.6;fill:#D8DEE8;" width="56.493" height="560.949"/>
                <rect x="1357.472" y="2246.761" transform="matrix(-1 -1.224647e-16 1.224647e-16 -1 2752.6064 5054.4712)" style="fill:#D8DEE8;" width="37.662" height="560.949"/>
              </g>
              <g>
                <rect x="1215.686" y="2246.761" transform="matrix(-1 -1.224647e-16 1.224647e-16 -1 2487.8657 5054.4712)" style="opacity:0.6;fill:#D8DEE8;" width="56.493" height="560.949"/>
                <rect x="1213.471" y="2246.761" transform="matrix(-1 -1.224647e-16 1.224647e-16 -1 2464.6033 5054.4712)" style="fill:#D8DEE8;" width="37.662" height="560.949"/>
              </g>
              <g>
                <rect x="1071.685" y="2246.761" transform="matrix(-1 -1.224647e-16 1.224647e-16 -1 2199.863 5054.4712)" style="opacity:0.6;fill:#D8DEE8;" width="56.492" height="560.949"/>
                <rect x="1069.47" y="2246.761" transform="matrix(-1 -1.224647e-16 1.224647e-16 -1 2176.6013 5054.4712)" style="fill:#D8DEE8;" width="37.662" height="560.949"/>
              </g>
              <g>
                <rect x="927.684" y="2246.761" transform="matrix(-1 -1.224647e-16 1.224647e-16 -1 1911.8607 5054.4712)" style="opacity:0.6;fill:#D8DEE8;" width="56.493" height="560.949"/>
                <rect x="925.469" y="2246.761" transform="matrix(-1 -1.224647e-16 1.224647e-16 -1 1888.5996 5054.4712)" style="fill:#D8DEE8;" width="37.662" height="560.949"/>
              </g>
              <g>
                <rect x="783.683" y="2246.761" transform="matrix(-1 -1.224647e-16 1.224647e-16 -1 1623.8588 5054.4712)" style="opacity:0.6;fill:#D8DEE8;" width="56.493" height="560.949"/>
                <rect x="781.467" y="2246.761" transform="matrix(-1 -1.224647e-16 1.224647e-16 -1 1600.5964 5054.4712)" style="fill:#D8DEE8;" width="37.662" height="560.949"/>
              </g>
              <g>
                <rect x="639.682" y="2246.761" transform="matrix(-1 -1.224647e-16 1.224647e-16 -1 1335.8563 5054.4712)" style="opacity:0.6;fill:#D8DEE8;" width="56.492" height="560.949"/>
                <rect x="637.466" y="2246.761" transform="matrix(-1 -1.224647e-16 1.224647e-16 -1 1312.5946 5054.4712)" style="fill:#D8DEE8;" width="37.662" height="560.949"/>
              </g>
            </g>
          </g>
          <g>
            <rect x="1837.66" y="2207.929" transform="matrix(-1 -1.224647e-16 1.224647e-16 -1 4342.5977 5064.5947)" style="fill:#FFFFFF;" width="667.277" height="648.736"/>
            <rect x="1867.329" y="2219.057" transform="matrix(-1.836970e-16 1 -1 -1.836970e-16 4703.5962 360.9984)" style="fill:#D8DEE8;" width="607.94" height="626.48"/>
            <g>
              <g>
                <g>
                  <rect x="1866.921" y="2240.604" transform="matrix(-1 -1.224647e-16 1.224647e-16 -1 4033.6948 5064.5947)" style="fill:#D8DEE8;" width="299.853" height="583.387"/>
                  <rect x="2175.824" y="2240.604" transform="matrix(-1 -1.224647e-16 1.224647e-16 -1 4651.501 5064.5947)" style="fill:#D8DEE8;" width="299.853" height="583.387"/>
                </g>
                <g>
                  <rect x="2175.824" y="2406.849" transform="matrix(-1 -1.224647e-16 1.224647e-16 -1 4651.501 4864.6924)" style="opacity:0.3;fill:#D8DEE8;" width="299.853" height="50.995"/>
                  <rect x="2175.824" y="2606.75" transform="matrix(-1 -1.224647e-16 1.224647e-16 -1 4651.501 5264.4961)" style="opacity:0.3;fill:#D8DEE8;" width="299.853" height="50.996"/>
                </g>
              </g>
              <g>
                <rect x="1866.921" y="2406.849" transform="matrix(-1 -1.224647e-16 1.224647e-16 -1 4033.6948 4864.6924)" style="opacity:0.3;fill:#D8DEE8;" width="299.853" height="50.995"/>
                <rect x="1866.921" y="2606.75" transform="matrix(-1 -1.224647e-16 1.224647e-16 -1 4033.6948 5264.4961)" style="opacity:0.3;fill:#D8DEE8;" width="299.853" height="50.996"/>
              </g>
            </g>
            <g>
              <g>
                <rect x="2326.094" y="2225.287" transform="matrix(-1 -1.224647e-16 1.224647e-16 -1 4667.9536 5058.4395)" style="fill:#D8DEE8;" width="15.765" height="607.865"/>
                <polygon style="fill:#97A6B7;" points="2341.859,2833.152 2341.859,2225.287 2333.977,2225.287 &#9;&#9;&#9;&#9;&#9;&#9;&#9;"/>
                <rect x="2320.124" y="2211.688" transform="matrix(-1 -1.224647e-16 1.224647e-16 -1 4667.9541 4455.334)" style="fill:#D8DEE8;" width="27.707" height="31.957"/>
                <rect x="2320.124" y="2817.173" transform="matrix(-1 -1.224647e-16 1.224647e-16 -1 4667.9541 5666.3032)" style="fill:#D8DEE8;" width="27.707" height="31.957"/>
              </g>
              <g>
                <rect x="2109.191" y="2225.287" transform="matrix(-1 -1.224647e-16 1.224647e-16 -1 4234.1465 5058.4395)" style="fill:#D8DEE8;" width="15.765" height="607.865"/>
                <polygon style="fill:#97A6B7;" points="2124.956,2833.152 2124.956,2225.287 2117.073,2225.287 &#9;&#9;&#9;&#9;&#9;&#9;&#9;"/>
                <rect x="2103.219" y="2211.688" transform="matrix(-1 -1.224647e-16 1.224647e-16 -1 4234.1465 4455.334)" style="fill:#D8DEE8;" width="27.708" height="31.957"/>
                <rect x="2103.219" y="2817.173" transform="matrix(-1 -1.224647e-16 1.224647e-16 -1 4234.1465 5666.3032)" style="fill:#D8DEE8;" width="27.708" height="31.957"/>
              </g>
              <g>
                <rect x="2000.739" y="2225.287" transform="matrix(-1 -1.224647e-16 1.224647e-16 -1 4017.2422 5058.4395)" style="fill:#D8DEE8;" width="15.764" height="607.865"/>
                <polygon style="fill:#97A6B7;" points="2016.503,2833.152 2016.503,2225.287 2008.621,2225.287 &#9;&#9;&#9;&#9;&#9;&#9;&#9;"/>
                <rect x="1994.767" y="2211.688" transform="matrix(-1 -1.224647e-16 1.224647e-16 -1 4017.2422 4455.334)" style="fill:#D8DEE8;" width="27.708" height="31.957"/>
                <rect x="1994.767" y="2817.173" transform="matrix(-1 -1.224647e-16 1.224647e-16 -1 4017.2422 5666.3032)" style="fill:#D8DEE8;" width="27.708" height="31.957"/>
              </g>
              <g>
                <rect x="2217.642" y="2225.287" transform="matrix(-1 -1.224647e-16 1.224647e-16 -1 4451.0498 5058.4395)" style="fill:#D8DEE8;" width="15.765" height="607.865"/>
                <polygon style="fill:#97A6B7;" points="2233.407,2833.152 2233.407,2225.287 2225.525,2225.287 &#9;&#9;&#9;&#9;&#9;&#9;&#9;"/>
                <rect x="2211.671" y="2211.688" transform="matrix(-1 -1.224647e-16 1.224647e-16 -1 4451.0498 4455.334)" style="fill:#D8DEE8;" width="27.707" height="31.957"/>
                <rect x="2211.671" y="2817.173" transform="matrix(-1 -1.224647e-16 1.224647e-16 -1 4451.0498 5666.3032)" style="fill:#D8DEE8;" width="27.707" height="31.957"/>
              </g>
            </g>
          </g>
        </g>
        <g>
          <g>
            <rect x="725.172" y="1562.952" transform="matrix(-1 -1.224647e-16 1.224647e-16 -1 2784.0161 3774.6406)" style="fill:#D8DEE8;" width="1333.672" height="648.736"/>
            <rect x="780.436" y="1601.783" transform="matrix(-1 -1.224647e-16 1.224647e-16 -1 2784.0168 3764.5159)" style="opacity:0.3;fill:#D8DEE8;" width="1223.145" height="560.949"/>
            <g>
              <g>
                <rect x="1868.874" y="1601.783" transform="matrix(-1 -1.224647e-16 1.224647e-16 -1 3794.2402 3764.5159)" style="opacity:0.6;fill:#D8DEE8;" width="56.493" height="560.949"/>
                <rect x="1866.658" y="1601.783" transform="matrix(-1 -1.224647e-16 1.224647e-16 -1 3770.9778 3764.5159)" style="fill:#D8DEE8;" width="37.662" height="560.949"/>
              </g>
              <g>
                <rect x="1724.873" y="1601.783" transform="matrix(-1 -1.224647e-16 1.224647e-16 -1 3506.2378 3764.5159)" style="opacity:0.6;fill:#D8DEE8;" width="56.492" height="560.949"/>
                <rect x="1722.657" y="1601.783" transform="matrix(-1 -1.224647e-16 1.224647e-16 -1 3482.9761 3764.5159)" style="fill:#D8DEE8;" width="37.662" height="560.949"/>
              </g>
              <g>
                <rect x="1580.871" y="1601.783" transform="matrix(-1 -1.224647e-16 1.224647e-16 -1 3218.2351 3764.5159)" style="opacity:0.6;fill:#D8DEE8;" width="56.493" height="560.949"/>
                <rect x="1578.656" y="1601.783" transform="matrix(-1 -1.224647e-16 1.224647e-16 -1 3194.9741 3764.5159)" style="fill:#D8DEE8;" width="37.662" height="560.949"/>
              </g>
              <g>
                <rect x="1436.87" y="1601.783" transform="matrix(-1 -1.224647e-16 1.224647e-16 -1 2930.2334 3764.5159)" style="opacity:0.6;fill:#D8DEE8;" width="56.493" height="560.949"/>
                <rect x="1434.655" y="1601.783" transform="matrix(-1 -1.224647e-16 1.224647e-16 -1 2906.9709 3764.5159)" style="fill:#D8DEE8;" width="37.662" height="560.949"/>
              </g>
              <g>
                <rect x="1292.869" y="1601.783" transform="matrix(-1 -1.224647e-16 1.224647e-16 -1 2642.2307 3764.5159)" style="opacity:0.6;fill:#D8DEE8;" width="56.492" height="560.949"/>
                <rect x="1290.654" y="1601.783" transform="matrix(-1 -1.224647e-16 1.224647e-16 -1 2618.969 3764.5159)" style="fill:#D8DEE8;" width="37.662" height="560.949"/>
              </g>
              <g>
                <rect x="1148.868" y="1601.783" transform="matrix(-1 -1.224647e-16 1.224647e-16 -1 2354.2283 3764.5159)" style="opacity:0.6;fill:#D8DEE8;" width="56.493" height="560.949"/>
                <rect x="1146.653" y="1601.783" transform="matrix(-1 -1.224647e-16 1.224647e-16 -1 2330.9673 3764.5159)" style="fill:#D8DEE8;" width="37.662" height="560.949"/>
              </g>
              <g>
                <rect x="1004.867" y="1601.783" transform="matrix(-1 -1.224647e-16 1.224647e-16 -1 2066.2266 3764.5159)" style="opacity:0.6;fill:#D8DEE8;" width="56.493" height="560.949"/>
                <rect x="1002.651" y="1601.783" transform="matrix(-1 -1.224647e-16 1.224647e-16 -1 2042.9641 3764.5159)" style="fill:#D8DEE8;" width="37.662" height="560.949"/>
              </g>
              <g>
                <rect x="860.866" y="1601.783" transform="matrix(-1 -1.224647e-16 1.224647e-16 -1 1778.2239 3764.5159)" style="opacity:0.6;fill:#D8DEE8;" width="56.492" height="560.949"/>
                <rect x="858.65" y="1601.783" transform="matrix(-1 -1.224647e-16 1.224647e-16 -1 1754.9622 3764.5159)" style="fill:#D8DEE8;" width="37.662" height="560.949"/>
              </g>
            </g>
          </g>
          <g>
            <rect x="2058.844" y="1562.952" transform="matrix(-1 -1.224647e-16 1.224647e-16 -1 4784.9653 3774.6406)" style="fill:#FFFFFF;" width="667.277" height="648.736"/>
            <rect x="2088.513" y="1574.08" transform="matrix(-1.836970e-16 1 -1 -1.836970e-16 4279.8027 -505.1628)" style="opacity:0.3;fill:#D8DEE8;" width="607.94" height="626.48"/>
            <g>
              <g>
                <g>
                  <rect x="2088.105" y="1595.626" transform="matrix(-1 -1.224647e-16 1.224647e-16 -1 4476.0625 3774.6399)" style="fill:#FFFFFF;" width="299.853" height="583.387"/>
                  <rect x="2397.008" y="1595.626" transform="matrix(-1 -1.224647e-16 1.224647e-16 -1 5093.8682 3774.6399)" style="fill:#FFFFFF;" width="299.853" height="583.387"/>
                </g>
                <g>
                  <rect x="2397.008" y="1761.872" transform="matrix(-1 -1.224647e-16 1.224647e-16 -1 5093.8682 3574.7383)" style="opacity:0.3;fill:#D8DEE8;" width="299.853" height="50.995"/>
                  <rect x="2397.008" y="1961.773" transform="matrix(-1 -1.224647e-16 1.224647e-16 -1 5093.8682 3974.542)" style="opacity:0.3;fill:#D8DEE8;" width="299.853" height="50.996"/>
                </g>
              </g>
              <g>
                <rect x="2088.105" y="1761.872" transform="matrix(-1 -1.224647e-16 1.224647e-16 -1 4476.0625 3574.7383)" style="opacity:0.3;fill:#D8DEE8;" width="299.853" height="50.995"/>
                <rect x="2088.105" y="1961.773" transform="matrix(-1 -1.224647e-16 1.224647e-16 -1 4476.0625 3974.542)" style="opacity:0.3;fill:#D8DEE8;" width="299.853" height="50.996"/>
              </g>
            </g>
            <g>
              <g>
                <rect x="2547.278" y="1580.31" transform="matrix(-1 -1.224647e-16 1.224647e-16 -1 5110.3208 3768.4849)" style="fill:#D8DEE8;" width="15.765" height="607.865"/>
                <polygon style="fill:#97A6B7;" points="2563.043,2188.175 2563.043,1580.31 2555.16,1580.31 &#9;&#9;&#9;&#9;&#9;&#9;&#9;"/>
                <rect x="2541.307" y="1566.711" transform="matrix(-1 -1.224647e-16 1.224647e-16 -1 5110.3218 3165.3794)" style="fill:#D8DEE8;" width="27.707" height="31.956"/>
                <rect x="2541.307" y="2172.196" transform="matrix(-1 -1.224647e-16 1.224647e-16 -1 5110.3218 4376.3496)" style="fill:#D8DEE8;" width="27.707" height="31.957"/>
              </g>
              <g>
                <rect x="2330.375" y="1580.31" transform="matrix(-1 -1.224647e-16 1.224647e-16 -1 4676.5142 3768.4849)" style="fill:#D8DEE8;" width="15.764" height="607.865"/>
                <polygon style="fill:#97A6B7;" points="2346.139,2188.175 2346.139,1580.31 2338.257,1580.31 &#9;&#9;&#9;&#9;&#9;&#9;&#9;"/>
                <rect x="2324.403" y="1566.711" transform="matrix(-1 -1.224647e-16 1.224647e-16 -1 4676.5142 3165.3794)" style="fill:#D8DEE8;" width="27.708" height="31.956"/>
                <rect x="2324.403" y="2172.196" transform="matrix(-1 -1.224647e-16 1.224647e-16 -1 4676.5142 4376.3496)" style="fill:#D8DEE8;" width="27.708" height="31.957"/>
              </g>
              <g>
                <rect x="2221.923" y="1580.31" transform="matrix(-1 -1.224647e-16 1.224647e-16 -1 4459.6099 3768.4849)" style="fill:#D8DEE8;" width="15.764" height="607.865"/>
                <polygon style="fill:#97A6B7;" points="2237.687,2188.175 2237.687,1580.31 2229.805,1580.31 &#9;&#9;&#9;&#9;&#9;&#9;&#9;"/>
                <rect x="2215.951" y="1566.711" transform="matrix(-1 -1.224647e-16 1.224647e-16 -1 4459.6099 3165.3794)" style="fill:#D8DEE8;" width="27.708" height="31.956"/>
                <rect x="2215.951" y="2172.196" transform="matrix(-1 -1.224647e-16 1.224647e-16 -1 4459.6099 4376.3496)" style="fill:#D8DEE8;" width="27.708" height="31.957"/>
              </g>
              <g>
                <rect x="2438.827" y="1580.31" transform="matrix(-1 -1.224647e-16 1.224647e-16 -1 4893.418 3768.4849)" style="fill:#D8DEE8;" width="15.765" height="607.865"/>
                <polygon style="fill:#97A6B7;" points="2454.591,2188.175 2454.591,1580.31 2446.708,1580.31 &#9;&#9;&#9;&#9;&#9;&#9;&#9;"/>
                <rect x="2432.855" y="1566.711" transform="matrix(-1 -1.224647e-16 1.224647e-16 -1 4893.4175 3165.3794)" style="fill:#D8DEE8;" width="27.707" height="31.956"/>
                <rect x="2432.855" y="2172.196" transform="matrix(-1 -1.224647e-16 1.224647e-16 -1 4893.4175 4376.3496)" style="fill:#D8DEE8;" width="27.707" height="31.957"/>
              </g>
            </g>
          </g>
        </g>
      </g>
      <g>
        <g>
          <linearGradient id="SVGID_00000168833417582607148660000017693386623336251827_" gradientUnits="userSpaceOnUse" x1="5846.6914" y1="2464.7358" x2="5663.165" y2="2774.6919" gradientTransform="matrix(1 0 0 1 -3022.4941 0)">
            <stop offset="0" style="stop-color:#FFC444"/>
            <stop offset="0.3138" style="stop-color:#FBA94A"/>
            <stop offset="0.9964" style="stop-color:#F36F56"/>
          </linearGradient>
          <polygon style="fill:url(#SVGID_00000168833417582607148660000017693386623336251827_);" points="2822.113,2743.004 &#10;&#9;&#9;&#9;&#9;&#9;2654.889,2722.56 2654.889,2475.931 2822.113,2444.256 &#9;&#9;&#9;&#9;"/>
          <g>
            <linearGradient id="SVGID_00000173839613798123318540000010533431446255047595_" gradientUnits="userSpaceOnUse" x1="6014.6089" y1="2472.2625" x2="5824.251" y2="2793.7561" gradientTransform="matrix(1 0 0 1 -3022.4941 0)">
              <stop offset="0" style="stop-color:#FFC444"/>
              <stop offset="0.3138" style="stop-color:#FBA94A"/>
              <stop offset="0.9964" style="stop-color:#F36F56"/>
            </linearGradient>
            <polygon style="fill:url(#SVGID_00000173839613798123318540000010533431446255047595_);" points="3026.086,2730.01 &#10;&#9;&#9;&#9;&#9;&#9;&#9;2822.113,2743.004 2822.113,2444.256 3026.086,2472.415 &#9;&#9;&#9;&#9;&#9;"/>
            <polygon style="fill:#FFFFFF;" points="2899.001,2454.87 2899.001,2496.757 2966.906,2503.101 2966.906,2464.244 &#9;&#9;&#9;&#9;&#9;"/>
          </g>
        </g>
        <g>
          <linearGradient id="SVGID_00000012472560420339764150000004765300940194740636_" gradientUnits="userSpaceOnUse" x1="6050.3667" y1="2711.311" x2="5785.5049" y2="3158.6331" gradientTransform="matrix(1 0 0 1 -3022.4941 0)">
            <stop offset="0" style="stop-color:#FFC444"/>
            <stop offset="0.3138" style="stop-color:#FBA94A"/>
            <stop offset="0.9964" style="stop-color:#F36F56"/>
          </linearGradient>
          <polygon style="fill:url(#SVGID_00000012472560420339764150000004765300940194740636_);" points="3066.204,3069.174 &#10;&#9;&#9;&#9;&#9;&#9;2792.073,3088.455 2792.073,2686.951 3066.204,2706.231 &#9;&#9;&#9;&#9;"/>
          <linearGradient id="SVGID_00000149339555149336235730000017547035890804306103_" gradientUnits="userSpaceOnUse" x1="5813.6553" y1="2712.2769" x2="5567.0044" y2="3128.8433" gradientTransform="matrix(1 0 0 1 -3022.4941 0)">
            <stop offset="0" style="stop-color:#FFC444"/>
            <stop offset="0.3138" style="stop-color:#FBA94A"/>
            <stop offset="0.9964" style="stop-color:#F36F56"/>
          </linearGradient>
          <polygon style="fill:url(#SVGID_00000149339555149336235730000017547035890804306103_);" points="2792.073,3088.455 &#10;&#9;&#9;&#9;&#9;&#9;2567.332,3060.978 2567.332,2712.582 2792.073,2686.951 &#9;&#9;&#9;&#9;"/>
          <polygon style="fill:#FFFFFF;" points="2889.115,2693.776 2889.115,2756.549 2980.965,2761.212 2980.965,2700.237 &#9;&#9;&#9;&#9;"/>
        </g>
        <g>
          <linearGradient id="SVGID_00000134214872425568245240000017292687525773760899_" gradientUnits="userSpaceOnUse" x1="6052.8008" y1="2848.1655" x2="5886.7842" y2="3128.5491" gradientTransform="matrix(1 0 0 1 -3022.4941 0)">
            <stop offset="0" style="stop-color:#FFC444"/>
            <stop offset="0.3138" style="stop-color:#FBA94A"/>
            <stop offset="0.9964" style="stop-color:#F36F56"/>
          </linearGradient>
          <polygon style="fill:url(#SVGID_00000134214872425568245240000017292687525773760899_);" points="3032.366,3102.22 &#10;&#9;&#9;&#9;&#9;&#9;2881.097,3083.727 2881.097,2842.63 3032.366,2831.975 &#9;&#9;&#9;&#9;"/>
          <g>
            <linearGradient id="SVGID_00000173865981642869673510000018312873053029320320_" gradientUnits="userSpaceOnUse" x1="6214.6714" y1="2846.772" x2="6035.2441" y2="3149.8042" gradientTransform="matrix(1 0 0 1 -3022.4941 0)">
              <stop offset="0" style="stop-color:#FFC444"/>
              <stop offset="0.3138" style="stop-color:#FBA94A"/>
              <stop offset="0.9964" style="stop-color:#F36F56"/>
            </linearGradient>
            <polygon style="fill:url(#SVGID_00000173865981642869673510000018312873053029320320_);" points="3216.879,3089.752 &#10;&#9;&#9;&#9;&#9;&#9;&#9;3032.366,3102.22 3032.366,2831.975 3216.879,2842.582 &#9;&#9;&#9;&#9;&#9;"/>
            <polygon style="fill:#FFFFFF;" points="3099.383,2835.827 3099.383,2948.448 3161.077,2950.496 3161.077,2839.374 &#9;&#9;&#9;&#9;&#9;"/>
          </g>
        </g>
      </g>
      <g>
        <g>
          <linearGradient id="SVGID_00000062181568051759556560000007279409294502813613_" gradientUnits="userSpaceOnUse" x1="534.2277" y1="2970.1646" x2="2037.9364" y2="2970.1646">
            <stop offset="0" style="stop-color:#444B8C"/>
            <stop offset="0.9964" style="stop-color:#26264F"/>
          </linearGradient>
          <path style="fill:url(#SVGID_00000062181568051759556560000007279409294502813613_);" d="M534.228,2801.875v109.9 c0,10.223,7.737,18.789,17.908,19.824l1125.209,106.626l151.455,100.23l209.137-278.201L534.228,2801.875z"/>
          <linearGradient id="SVGID_00000121999903100957845220000015734865504728543380_" gradientUnits="userSpaceOnUse" x1="1396.6989" y1="3023.6921" x2="1680.9622" y2="3023.6921">
            <stop offset="0" style="stop-color:#444B8C"/>
            <stop offset="0.9964" style="stop-color:#26264F"/>
          </linearGradient>
          <path style="fill:url(#SVGID_00000121999903100957845220000015734865504728543380_);" d="M1396.699,2952.92v98.363 c0,8.246,5.987,15.273,14.129,16.58l270.134,43.395l-7.855-158.568l-258.544-16.529 C1404.887,2935.542,1396.699,2943.224,1396.699,2952.92z"/>
          <g>
            <linearGradient id="SVGID_00000003068372013780950730000002533139098972220582_" gradientUnits="userSpaceOnUse" x1="607.8476" y1="2920.8145" x2="688.5837" y2="2920.8145">
              <stop offset="0" style="stop-color:#311944"/>
              <stop offset="1" style="stop-color:#6B3976"/>
            </linearGradient>
            <path style="fill:url(#SVGID_00000003068372013780950730000002533139098972220582_);" d="M648.216,2852.576 c-0.916,0-1.82,0.07-2.721,0.172l-14.285-0.172l0.083,6.287c-13.84,10.821-23.446,34.482-23.446,61.952 c0,28.552,10.378,52.996,25.103,63.174l0.067,5.063h15.198c22.294,0,40.368-30.551,40.368-68.238 C688.584,2883.127,670.51,2852.576,648.216,2852.576z"/>
            <linearGradient id="SVGID_00000062166814213749267260000008087215785069674370_" gradientUnits="userSpaceOnUse" x1="590.842" y1="2920.8145" x2="671.5778" y2="2920.8145">
              <stop offset="0" style="stop-color:#311944"/>
              <stop offset="1" style="stop-color:#6B3976"/>
            </linearGradient>
            <ellipse style="fill:url(#SVGID_00000062166814213749267260000008087215785069674370_);" cx="631.21" cy="2920.814" rx="40.368" ry="68.238"/>
            <ellipse style="fill:#D8DEE8;" cx="625.536" cy="2920.814" rx="22.679" ry="38.337"/>
            <linearGradient id="SVGID_00000031182378178376258700000016679221299972738709_" gradientUnits="userSpaceOnUse" x1="669.486" y1="2926.2688" x2="606.4418" y2="2917.782">
              <stop offset="0.0054" style="stop-color:#D8DEE8"/>
              <stop offset="1" style="stop-color:#F4F7FA"/>
            </linearGradient>
            <ellipse style="fill:url(#SVGID_00000031182378178376258700000016679221299972738709_);" cx="628.968" cy="2920.814" rx="19.248" ry="35.591"/>
          </g>
          <g>
            <linearGradient id="SVGID_00000034798205734983948030000001290441132878594447_" gradientUnits="userSpaceOnUse" x1="699.3834" y1="2935.0188" x2="787.8412" y2="2935.0188">
              <stop offset="0" style="stop-color:#311944"/>
              <stop offset="1" style="stop-color:#6B3976"/>
            </linearGradient>
            <path style="fill:url(#SVGID_00000034798205734983948030000001290441132878594447_);" d="M743.612,2860.254 c-1.003,0-1.995,0.077-2.981,0.188l-15.651-0.188l0.091,6.888c-15.164,11.856-25.688,37.78-25.688,67.877 c0,31.282,11.37,58.064,27.504,69.216l0.073,5.548h16.652c24.426,0,44.229-33.473,44.229-74.764 C787.841,2893.727,768.038,2860.254,743.612,2860.254z"/>
            <linearGradient id="SVGID_00000112618632044580786650000016494073206495257279_" gradientUnits="userSpaceOnUse" x1="680.7513" y1="2935.019" x2="769.2088" y2="2935.019">
              <stop offset="0" style="stop-color:#311944"/>
              <stop offset="1" style="stop-color:#6B3976"/>
            </linearGradient>
            <ellipse style="fill:url(#SVGID_00000112618632044580786650000016494073206495257279_);" cx="724.98" cy="2935.019" rx="44.229" ry="74.764"/>
            <ellipse style="fill:#D8DEE8;" cx="718.764" cy="2935.019" rx="24.848" ry="42.003"/>
            <linearGradient id="SVGID_00000062182278362121256610000006276401012856650926_" gradientUnits="userSpaceOnUse" x1="766.9166" y1="2940.9946" x2="697.8433" y2="2931.6963">
              <stop offset="0.0054" style="stop-color:#D8DEE8"/>
              <stop offset="1" style="stop-color:#F4F7FA"/>
            </linearGradient>
            <ellipse style="fill:url(#SVGID_00000062182278362121256610000006276401012856650926_);" cx="722.524" cy="2935.019" rx="21.088" ry="38.995"/>
          </g>
          <g>
            <linearGradient id="SVGID_00000164477277255076704780000000343376801479982252_" gradientUnits="userSpaceOnUse" x1="797.1498" y1="2941.8875" x2="893.7343" y2="2941.8875">
              <stop offset="0" style="stop-color:#311944"/>
              <stop offset="1" style="stop-color:#6B3976"/>
            </linearGradient>
            <path style="fill:url(#SVGID_00000164477277255076704780000000343376801479982252_);" d="M845.442,2860.254 c-1.095,0-2.178,0.084-3.255,0.206l-17.089-0.206l0.1,7.521c-16.557,12.945-28.049,41.251-28.049,74.113 c0,34.156,12.415,63.398,30.031,75.575l0.08,6.057h18.181c26.67,0,48.292-36.548,48.292-81.632 C893.734,2896.802,872.112,2860.254,845.442,2860.254z"/>
            <linearGradient id="SVGID_00000183207268840146204710000016337920522213817272_" gradientUnits="userSpaceOnUse" x1="776.8061" y1="2941.8875" x2="873.3902" y2="2941.8875">
              <stop offset="0" style="stop-color:#311944"/>
              <stop offset="1" style="stop-color:#6B3976"/>
            </linearGradient>
            <ellipse style="fill:url(#SVGID_00000183207268840146204710000016337920522213817272_);" cx="825.098" cy="2941.887" rx="48.292" ry="81.633"/>
            <ellipse style="fill:#D8DEE8;" cx="818.311" cy="2941.887" rx="27.131" ry="45.862"/>
            <linearGradient id="SVGID_00000114069300361937366110000007974592874577977220_" gradientUnits="userSpaceOnUse" x1="870.8876" y1="2948.4126" x2="795.4682" y2="2938.2598">
              <stop offset="0.0054" style="stop-color:#D8DEE8"/>
              <stop offset="1" style="stop-color:#F4F7FA"/>
            </linearGradient>
            <ellipse style="fill:url(#SVGID_00000114069300361937366110000007974592874577977220_);" cx="822.416" cy="2941.887" rx="23.026" ry="42.578"/>
          </g>
          <g>
            <linearGradient id="SVGID_00000165922637980348962590000005878260199890172325_" gradientUnits="userSpaceOnUse" x1="1253.3051" y1="3007.0454" x2="1376.6049" y2="3007.0454">
              <stop offset="0" style="stop-color:#311944"/>
              <stop offset="1" style="stop-color:#6B3976"/>
            </linearGradient>
            <path style="fill:url(#SVGID_00000165922637980348962590000005878260199890172325_);" d="M1314.955,2902.833 c-1.398,0-2.78,0.107-4.155,0.262l-21.816-0.262l0.128,9.601c-21.137,16.525-35.807,52.661-35.807,94.613 c0,43.604,15.849,80.935,38.337,96.479l0.102,7.733h23.21c34.047,0,61.65-46.657,61.65-104.212 C1376.605,2949.49,1349.002,2902.833,1314.955,2902.833z"/>
            <linearGradient id="SVGID_00000163065641890371716190000009108094437723635357_" gradientUnits="userSpaceOnUse" x1="1227.3345" y1="3007.0454" x2="1350.6337" y2="3007.0454">
              <stop offset="0" style="stop-color:#311944"/>
              <stop offset="1" style="stop-color:#6B3976"/>
            </linearGradient>
            <ellipse style="fill:url(#SVGID_00000163065641890371716190000009108094437723635357_);" cx="1288.984" cy="3007.045" rx="61.65" ry="104.213"/>
            <ellipse style="fill:#D8DEE8;" cx="1280.319" cy="3007.045" rx="34.636" ry="58.548"/>
            <linearGradient id="SVGID_00000162324904343399433060000013435524238030612359_" gradientUnits="userSpaceOnUse" x1="1347.4387" y1="3015.3752" x2="1251.1582" y2="3002.4146">
              <stop offset="0.0054" style="stop-color:#D8DEE8"/>
              <stop offset="1" style="stop-color:#F4F7FA"/>
            </linearGradient>
            <ellipse style="fill:url(#SVGID_00000162324904343399433060000013435524238030612359_);" cx="1285.56" cy="3007.045" rx="29.395" ry="54.355"/>
          </g>
          <g>
            <linearGradient id="SVGID_00000058560054267386583500000004485290045124167082_" gradientUnits="userSpaceOnUse" x1="1646.4502" y1="3052.4436" x2="1803.9703" y2="3052.4436">
              <stop offset="0" style="stop-color:#311944"/>
              <stop offset="1" style="stop-color:#6B3976"/>
            </linearGradient>
            <path style="fill:url(#SVGID_00000058560054267386583500000004485290045124167082_);" d="M1725.21,2919.308 c-1.786,0-3.552,0.136-5.308,0.335l-27.87-0.335l0.163,12.266c-27.003,21.112-45.744,67.277-45.744,120.871 c0,55.706,20.248,103.397,48.977,123.256l0.131,9.879h29.652c43.497,0,78.76-59.607,78.76-133.135 C1803.97,2978.914,1768.707,2919.308,1725.21,2919.308z"/>
            <linearGradient id="SVGID_00000111186963086294609980000000084657188060104601_" gradientUnits="userSpaceOnUse" x1="1613.2716" y1="3052.4436" x2="1770.7911" y2="3052.4436">
              <stop offset="0" style="stop-color:#311944"/>
              <stop offset="1" style="stop-color:#6B3976"/>
            </linearGradient>
            <ellipse style="fill:url(#SVGID_00000111186963086294609980000000084657188060104601_);" cx="1692.031" cy="3052.444" rx="78.76" ry="133.136"/>
            <ellipse style="fill:#D8DEE8;" cx="1680.962" cy="3052.444" rx="44.248" ry="74.797"/>
            <linearGradient id="SVGID_00000023982314709142464990000016229873516242788742_" gradientUnits="userSpaceOnUse" x1="1766.7094" y1="3063.0852" x2="1643.7076" y2="3046.5273">
              <stop offset="0.0054" style="stop-color:#D8DEE8"/>
              <stop offset="1" style="stop-color:#F4F7FA"/>
            </linearGradient>
            <ellipse style="fill:url(#SVGID_00000023982314709142464990000016229873516242788742_);" cx="1687.657" cy="3052.444" rx="37.553" ry="69.441"/>
          </g>
          <linearGradient id="SVGID_00000033356509440044608400000009583275511382785952_" gradientUnits="userSpaceOnUse" x1="1331.2441" y1="2333.3047" x2="-259.0698" y2="3366.6982">
            <stop offset="0" style="stop-color:#AA80F9"/>
            <stop offset="0.9964" style="stop-color:#6165D7"/>
          </linearGradient>
          <path style="fill:url(#SVGID_00000033356509440044608400000009583275511382785952_);" d="M467.294,2216.886 c-14.735,2.451-25.536,15.196-25.536,30.132v557.08c0,16.209,12.659,29.595,28.843,30.499l1047.086,58.42v-850.773 L467.294,2216.886z"/>
          <linearGradient id="SVGID_00000045602964994663274210000010203836516213565113_" gradientUnits="userSpaceOnUse" x1="2394.5901" y1="2107.8435" x2="1187.9298" y2="2875.1565">
            <stop offset="0" style="stop-color:#AA80F9"/>
            <stop offset="0.9964" style="stop-color:#6165D7"/>
          </linearGradient>
          <path style="fill:url(#SVGID_00000045602964994663274210000010203836516213565113_);" d="M2108.162,2062.107l-590.475-19.865 v850.773h622.224v-798.073C2139.911,2077.228,2125.867,2062.702,2108.162,2062.107z"/>
          <linearGradient id="SVGID_00000008840359485534677890000003820642418811308678_" gradientUnits="userSpaceOnUse" x1="441.7575" y1="2536.4583" x2="1463.6725" y2="2536.4583">
            <stop offset="0" style="stop-color:#AA80F9"/>
            <stop offset="0.9964" style="stop-color:#6165D7"/>
          </linearGradient>
          <path style="fill:url(#SVGID_00000008840359485534677890000003820642418811308678_);" d="M1296.452,2679.159 c-134.463-61.934-260.678,32.598-383.705-58.766c-107.74-80.009-73.003-198.59-159.014-338.767 c-19.693-32.096-46.069-65.787-82.115-98.711l-204.324,33.972c-14.735,2.451-25.536,15.196-25.536,30.132v557.08 c0,16.209,12.659,29.595,28.843,30.499l993.072,55.407C1418.102,2765.327,1356.176,2706.667,1296.452,2679.159z"/>
          <path style="fill:#F4F7FA;" d="M2454.479,2623.849l-43.641-109.753l-1.296-90.741l44.084-8.816 c4.276-0.856,6.97-5.084,5.917-9.315c-6.664-26.759-31.058-115.14-69.013-144.34c-26.754-20.579-534.081-26.734-534.081-26.734 l-244.176,15.875c-19.176,1.249-34.094,17.166-34.094,36.383v541.073c0,14.199,10.856,26.037,24.999,27.263l167.613,14.538 l33.177,33.549c0,0,475.066,38.041,664.653,3.469c9.821-1.79,16.969-10.284,16.969-20.265v-237.988 C2485.59,2613.478,2454.479,2623.849,2454.479,2623.849z"/>
          <linearGradient id="SVGID_00000035504289750403905740000018445780484231952546_" gradientUnits="userSpaceOnUse" x1="1578.1801" y1="2574.189" x2="1987.8109" y2="2574.189">
            <stop offset="0.0054" style="stop-color:#D8DEE8"/>
            <stop offset="1" style="stop-color:#F4F7FA"/>
          </linearGradient>
          <path style="opacity:0.8;fill:url(#SVGID_00000035504289750403905740000018445780484231952546_);" d="M1939.417,2656.689 c0,0-5.185-235.063,0-331.853c2.514-46.95-21.004-74.345-45.885-90.143c-23.202-0.372-37.084-0.542-37.084-0.542 l-244.176,15.875c-19.176,1.249-34.094,17.166-34.094,36.383v541.073c0,14.199,10.856,26.037,24.999,27.263l167.613,14.538 l33.177,33.549c0,0,78.219,6.264,183.842,11.396v-200.501L1939.417,2656.689z"/>
          <path style="fill:#97A6B7;" d="M2480.181,2948.464l-18.787-6.576v-38.08c0-10.264-8.321-18.585-18.585-18.585h-588.312 c-14.192,0-25.697,11.505-25.697,25.697v227.536c0,12.517,10.402,22.528,22.911,22.046l629.95-24.23 c11.847-0.456,21.216-10.192,21.216-22.047v-133.772C2502.875,2966.051,2493.774,2953.222,2480.181,2948.464z"/>
          <linearGradient id="SVGID_00000008124961492748084780000004173807415992132242_" gradientUnits="userSpaceOnUse" x1="2039.4072" y1="2912.6577" x2="2428.7544" y2="2912.6577">
            <stop offset="0" style="stop-color:#444B8C"/>
            <stop offset="0.9964" style="stop-color:#26264F"/>
          </linearGradient>
          <path style="fill:url(#SVGID_00000008124961492748084780000004173807415992132242_);" d="M2408.496,2752.967h-348.832 c-11.745,0-21.029,9.958-20.206,21.675l19.217,273.874c0.965,13.758,12.646,24.285,26.43,23.817l299.691-10.153 c13.09-0.443,23.738-10.687,24.69-23.749l19.215-263.734C2429.553,2762.96,2420.264,2752.967,2408.496,2752.967z"/>
          <g style="opacity:0.3;">
            <path style="fill:#97A6B7;" d="M2480.181,2948.464l-18.788-6.576v-38.08c0-8.111-5.205-14.99-12.45-17.528l-35.803,168.334 c-4.264,20.046-21.59,34.641-42.07,35.437l-274.945,10.686c-19.709,0.766-37.601-11.453-44.059-30.09l-64.257-185.425l0,0 h-133.315c-14.192,0-25.696,11.504-25.696,25.696v227.536c0,12.518,10.403,22.528,22.91,22.046l629.95-24.229 c11.846-0.456,21.215-10.191,21.215-22.048v-133.771C2502.875,2966.051,2493.773,2953.223,2480.181,2948.464z"/>
          </g>
          <linearGradient id="SVGID_00000090984081928782946680000018159578812316293308_" gradientUnits="userSpaceOnUse" x1="1980.8755" y1="2907.1572" x2="1789.0482" y2="3575.4607">
            <stop offset="0" style="stop-color:#FF9085"/>
            <stop offset="1" style="stop-color:#FB6FBB"/>
          </linearGradient>
          <path style="fill:url(#SVGID_00000090984081928782946680000018159578812316293308_);" d="M2017.195,3085.332l-65.417,3.271 c-40.615,2.031-75.516-28.528-78.867-69.054l-2.63-31.799h130.962c8.81,0,15.952,7.142,15.952,15.952V3085.332z"/>
          <linearGradient id="SVGID_00000065051105938691259980000000652499000268196254_" gradientUnits="userSpaceOnUse" x1="2455.8623" y1="3043.4963" x2="2264.0349" y2="3711.8003">
            <stop offset="0" style="stop-color:#FF9085"/>
            <stop offset="1" style="stop-color:#FB6FBB"/>
          </linearGradient>
          <path style="fill:url(#SVGID_00000065051105938691259980000000652499000268196254_);" d="M2439.196,3001.21l-10.442,71.138 c0,0,68.968-2.415,67.239-89.345l-42.799,4.707C2446,2988.5,2440.247,2994.049,2439.196,3001.21z"/>
          <path style="fill:#808080;" d="M1954.383,2658.18c-10.273,0-20.45-3.32-28.744-9.394l-26.914-19.71 c-9.987-7.312-15.951-19.066-15.951-31.443v-156.691c0-7.16,3.14-13.912,8.618-18.526c5.474-4.616,12.662-6.573,19.722-5.347 l26.379,4.547l473.459-0.026l45.329,202.237l-5.105,25.526l-1.42,0.026l-494.526,8.794 C1954.948,2658.179,1954.666,2658.18,1954.383,2658.18z M1906.985,2420.246c-4.84,0-9.553,1.698-13.321,4.869 c-4.678,3.942-7.36,9.709-7.36,15.827v156.691c0,11.256,5.423,21.946,14.503,28.596l26.917,19.71 c7.905,5.788,17.757,8.858,27.444,8.705l493.106-8.768l4.402-22.006l-44.55-198.749h-470.932l-26.679-4.573 C1909.34,2420.346,1908.157,2420.246,1906.985,2420.246z"/>
          <linearGradient id="SVGID_00000039848516041141610720000009170295274984379569_" gradientUnits="userSpaceOnUse" x1="1884.54" y1="2537.446" x2="2454.479" y2="2537.446">
            <stop offset="0" style="stop-color:#444B8C"/>
            <stop offset="0.9964" style="stop-color:#26264F"/>
          </linearGradient>
          <path style="fill:url(#SVGID_00000039848516041141610720000009170295274984379569_);" d="M2409.542,2423.355h-472.347 l-26.38-4.546c-13.727-2.365-26.274,8.205-26.274,22.134v156.69c0,11.862,5.655,23.012,15.225,30.02l26.917,19.71 c8.262,6.051,18.279,9.228,28.518,9.045l494.527-8.793l4.752-23.766L2409.542,2423.355z"/>
          <g>
            <path style="fill:#97A6B7;" d="M2115.93,2368.91h-40.186c-6.086,0-11.019,4.932-11.019,11.019v16.852 c0,6.086,4.932,11.019,11.019,11.019h40.186c6.086,0,11.018-4.932,11.018-11.019v-16.852 C2126.948,2373.842,2122.016,2368.91,2115.93,2368.91z"/>
            <path style="fill:#97A6B7;" d="M2351.856,2368.91h-40.185c-6.087,0-11.019,4.932-11.019,11.019v16.852 c0,6.086,4.932,11.019,11.019,11.019h40.185c6.086,0,11.019-4.932,11.019-11.019v-16.852 C2362.875,2373.842,2357.943,2368.91,2351.856,2368.91z"/>
          </g>
          <path style="opacity:0.3;fill:#FFFFFF;" d="M2261.763,2534.837c-121.89-46.619-236.547,11.484-289.075-51.852 c-14.203-17.125-19.938-38.434-21.267-59.63h-14.226l-26.379-4.547c-13.728-2.365-26.275,8.206-26.275,22.134v156.693 c0,11.862,5.656,23.012,15.226,30.02l26.916,19.708c8.261,6.051,18.277,9.228,28.519,9.046l447.966-7.965 C2352.53,2580.187,2301.103,2549.883,2261.763,2534.837z"/>
        </g>
      </g>
    </g>
  </g>
</svg>